<?xml version="1.0" encoding="UTF-8"?>
<svg id="Layer_2" data-name="Layer 2" xmlns="http://www.w3.org/2000/svg" viewBox="0 0 40.53 21.98">
  <defs>
    <style>
      .cls-1 {
        fill: none;
        stroke: #231f20;
        stroke-linecap: round;
        stroke-linejoin: round;
      }
    </style>
  </defs>
  <g id="Layer_1-2" data-name="Layer 1">
    <g>
      <path class="cls-1" d="M28.18,1.72c-2.47-2.98-7.91.43-7.91.43,0,0-5.45-3.4-7.91-.43l-2.3,10.3s3.83,2.47,10.21,3.23c6.38-.77,10.21-3.23,10.21-3.23l-2.3-10.3Z"/>
      <path class="cls-1" d="M30.48,12.02s4.77-1.02,8.94.77-14.04,9.11-19.15,8.68c-5.11.43-23.32-6.89-19.15-8.68s8.94-.77,8.94-.77"/>
      <polygon class="cls-1" points="20.26 4.57 21.13 7.25 23.95 7.25 21.67 8.9 22.54 11.58 20.26 9.92 17.99 11.58 18.86 8.9 16.58 7.25 19.39 7.25 20.26 4.57"/>
    </g>
  </g>
</svg>