<?xml version="1.0" encoding="UTF-8"?>
<svg id="Layer_2" data-name="Layer 2" xmlns="http://www.w3.org/2000/svg" viewBox="0 0 26.03 41.16">
  <defs>
    <style>
      .cls-1 {
        fill: none;
        stroke: #231f20;
        stroke-linecap: round;
        stroke-linejoin: round;
      }
    </style>
  </defs>
  <g id="Layer_1-2" data-name="Layer 1">
    <g>
      <path class="cls-1" d="M15.28,14.69c-3.28-.66-6.63.88-7.96,3.89-.37.83-.54,1.7-.56,2.56-.02,1.41-.69,2.72-1.95,3.4-2.04,1.09-3.61,2.99-4.15,5.52-.7,3.3.82,6.89,3.78,8.89,4.87,3.3,11.17,1.55,13.28-3.25.74-1.69.86-3.5.44-5.2-.33-1.36.04-2.81,1.07-3.73.91-.82,1.61-1.9,1.96-3.19.74-2.74-.44-5.78-2.83-7.54"/>
      <polyline class="cls-1" points="11.66 22.91 18.78 6.75 21.86 8.11 14.74 24.27"/>
      <path class="cls-1" d="M21.82,8.09l-3-1.32c-.31-.14-.47-.51-.37-.88l1.25-4.75c.13-.48.61-.76,1.02-.59l4.41,1.94c.4.18.53.73.25,1.15l-2.66,4.12c-.21.33-.59.46-.9.32Z"/>
      <circle class="cls-1" cx="11.74" cy="26.9" r="3.62"/>
      <rect class="cls-1" x="5.61" y="32.26" width="6.35" height="2.7" transform="translate(14.3 -.69) rotate(23.78)"/>
      <line class="cls-1" x1="17.78" y1="9.03" x2="20.86" y2="10.39"/>
      <line class="cls-1" x1="16.79" y1="11.28" x2="19.87" y2="12.63"/>
      <line class="cls-1" x1="15.8" y1="13.52" x2="18.88" y2="14.88"/>
      <line class="cls-1" x1="14.81" y1="15.77" x2="17.89" y2="17.13"/>
      <line class="cls-1" x1="13.82" y1="18.02" x2="16.9" y2="19.38"/>
      <line class="cls-1" x1="12.83" y1="20.26" x2="15.91" y2="21.62"/>
    </g>
  </g>
</svg>