<?xml version="1.0" encoding="UTF-8"?>
<svg id="Layer_2" data-name="Layer 2" xmlns="http://www.w3.org/2000/svg" viewBox="0 0 31.58 37.25">
  <defs>
    <style>
      .cls-1 {
        fill: none;
        stroke: #231f20;
        stroke-miterlimit: 10;
      }
    </style>
  </defs>
  <g id="Layer_1-2" data-name="Layer 1">
    <g>
      <g>
        <ellipse class="cls-1" cx="7.73" cy="9.74" rx="7.1" ry="9.35" transform="translate(-2.02 2.02) rotate(-13.18)"/>
        <path class="cls-1" d="M11.25,18.31l2.73,7.54c.49,1.36-.31,2.85-1.73,3.18h0c-1.41.33-2.8-.65-2.96-2.09l-.9-7.97"/>
        <line class="cls-1" x1=".53" y1="9.46" x2="14.13" y2="6.27"/>
        <line class="cls-1" x1="1.58" y1="13.94" x2="15.18" y2="10.75"/>
        <path class="cls-1" d="M1.19,12.63c1.33-.59,1.09-2.22,2.73-2.61,1.79-.42,2.23,1.48,4.02,1.06s1.35-2.32,3.14-2.74,2.24,1.48,4.03,1.06"/>
      </g>
      <g>
        <ellipse class="cls-1" cx="23.34" cy="19.33" rx="9.35" ry="7.1" transform="translate(-5.14 29.67) rotate(-59.58)"/>
        <path class="cls-1" d="M19.98,27.95l-3.22,7.34c-.58,1.33-2.2,1.85-3.45,1.12h0c-1.25-.73-1.58-2.4-.71-3.55l4.84-6.39"/>
        <line class="cls-1" x1="18.33" y1="14.15" x2="30.37" y2="21.22"/>
        <line class="cls-1" x1="16" y1="18.12" x2="28.04" y2="25.19"/>
        <path class="cls-1" d="M16.62,16.91c1.37.49,2.32-.86,3.78,0,1.58.93.6,2.61,2.18,3.54s2.58-.75,4.16.18.6,2.62,2.19,3.55"/>
      </g>
    </g>
  </g>
</svg>